<?xml version="1.0" encoding="utf-8"?>
<svg version="1.1" id="Lager_1" xmlns="http://www.w3.org/2000/svg" xmlns:xlink="http://www.w3.org/1999/xlink" x="0px" y="0px"
	 viewBox="0 0 512 282" style="enable-background:new 0 0 512 282;" xml:space="preserve">
<style type="text/css">
	.pro>*{fill:#7A9ACC;}
	circle{fill:#F76EAC;}
	.scope>*{fill:#2D3047;}
</style>
<g class="pro">
	<path d="M286.3,18.8c28.6,0,55.4,21.4,55.4,58.5s-26.8,58.5-55.4,58.5c-28.6,0-55.4-21.4-55.4-58.5
		S257.7,18.8,286.3,18.8z M286.3,104.9c11.6,0,16.1-10.7,16.1-27.7s-4.5-27.7-16.1-27.7c-11.6,0-16.1,10.7-16.1,27.7
		S274.7,104.9,286.3,104.9z"/>
	<path d="M145.6,21.4h31.3l2.7,19.2h0.9c8.3-15.2,20.8-21.9,31.7-21.9c6.9,0,10.7,0.9,13.8,2.2l-6.3,33
		c-4-0.9-7.6-1.8-12.5-1.8c-8,0-17.9,4.9-23.2,18.8v62.1h-38.4V21.4z"/>
	<path d="M54.5,141.6v30.8H16.1V21.4h31.3l2.7,10.3H51c8.3-7.6,19.2-12.9,30.4-12.9c26.3,0,43.3,22.3,43.3,56.7
		c0,38.4-22.8,60.3-46.4,60.3c-9.4,0-17.9-4-25-11.2L54.5,141.6z M68.8,104.5c8.9,0,16.5-7.1,16.5-28.6C85.3,57.6,80,50,69.7,50
		c-5.8,0-10.3,2.2-15.2,8v41.1C59,103.1,63.9,104.5,68.8,104.5z"/>
</g>
<circle cx="285.9" cy="77.1" r="12.8"/>
<g class="scope">
	<path d="M495.6,196.1h-58.4c0.4,12.4,3.3,21.9,8.6,28.2c5.3,6.4,12.3,9.6,21,9.6c4.7,0,8.9-0.7,12.5-2.2
		c3.6-1.4,7.3-3.8,11.2-7l1.9,2.7c-3.9,3.2-7.8,5.7-11.8,7.3c-4,1.7-8.6,2.5-13.8,2.5c-10.2,0-18.3-3.8-24.3-11.3
		c-6-7.5-9-18-9-31.4c0-9,1.3-16.8,3.9-23.5c2.6-6.6,6.4-11.7,11.2-15.3c4.8-3.5,10.5-5.3,16.9-5.3c10,0,17.5,3.5,22.7,10.6
		c5.1,7.1,7.7,16.7,7.7,28.8C495.9,191.8,495.8,193.8,495.6,196.1z M492.3,188.7c0-10.6-2.2-19.1-6.7-25.4
		c-4.5-6.3-11.1-9.5-19.9-9.5c-8.4,0-15.2,3.4-20.4,10.1c-5.3,6.7-8,16.4-8.2,29.2h55.2V188.7z"/>
	<path d="M401.6,161.6c5,7.3,7.6,17.9,7.6,31.6c0,13.8-2.6,24.6-7.8,32.4c-5.2,7.8-12.7,11.7-22.4,11.7
		c-5.7,0-10.7-1.3-15.1-4c-4.4-2.7-8.1-6.2-11.1-10.5v43.8l-3.5,0.6v-115h3.1l0.3,13.7c7.1-10.2,16.1-15.3,27.2-15.3
		C389.3,150.6,396.6,154.3,401.6,161.6z M398.7,223.3c4.6-7.1,6.9-17.1,6.9-30.1c0-12.9-2.2-22.7-6.6-29.4
		c-4.4-6.7-10.8-10.1-19.3-10.1c-5.8,0-10.8,1.3-15,4c-4.2,2.7-8.2,6.7-12.1,11.9v48.9c7.1,10.2,15.8,15.3,26.1,15.3
		C387.5,233.9,394.1,230.4,398.7,223.3z"/>
	<path d="M309.7,161.8c6,7.5,8.9,18,8.9,31.8c0,13.7-3,24.5-9,32.2c-6,7.7-14.2,11.6-24.5,11.6
		c-10.4,0-18.6-3.8-24.5-11.5c-5.9-7.7-8.8-18.3-8.8-31.8c0-13.6,3-24.3,9.1-31.9c6.1-7.7,14.2-11.5,24.4-11.5
		C295.6,150.6,303.7,154.4,309.7,161.8z M263.5,164.3c-5.3,7-8,16.9-8,29.8c0,12.7,2.6,22.5,7.8,29.4c5.2,7,12.5,10.5,21.8,10.5
		c9.2,0,16.5-3.5,21.8-10.5c5.3-7,8-16.9,8-29.9c0-12.7-2.6-22.4-7.8-29.4c-5.2-6.9-12.5-10.4-21.8-10.4
		C276.1,153.8,268.8,157.3,263.5,164.3z"/>
	<path d="M225.3,152.6c3.4,1.3,6.7,3.3,9.8,6.1l-2.1,2.4c-2.8-2.5-5.7-4.3-8.8-5.5c-3.1-1.2-6.7-1.8-10.6-1.8
		c-9.1,0-16.4,3.5-22,10.6c-5.5,7.1-8.3,17.1-8.3,29.9c0,12.7,2.8,22.4,8.3,29.3c5.5,6.9,12.8,10.3,21.8,10.3
		c7.7,0,14.5-2.6,20.4-7.7l2.1,2.4c-6.5,5.8-14,8.7-22.4,8.7c-6.8,0-12.7-1.7-17.8-5.1c-5.1-3.4-9.1-8.3-11.9-14.8
		c-2.8-6.5-4.3-14.2-4.3-23.1c0-8.9,1.4-16.6,4.2-23.2c2.8-6.6,6.7-11.7,11.8-15.2c5.1-3.5,11-5.3,17.8-5.3
		C217.9,150.6,221.9,151.3,225.3,152.6z"/>
	<path d="M144,152.8c3.9,1.4,7.7,3.7,11.5,6.7l-2.1,2.6c-3.8-2.9-7.3-5-10.7-6.3s-7.3-1.9-11.8-1.9c-6.3,0-11.6,1.6-15.7,4.7
		c-4.1,3.2-6.2,7.4-6.2,12.6c0,4.8,1.7,8.6,5.1,11.3c3.4,2.7,9.3,5.1,17.8,7.4c6.5,1.8,11.7,3.7,15.4,5.6c3.7,1.9,6.4,4.4,8,7.3
		c1.7,3,2.5,6.7,2.5,11.3c0,6.9-2.5,12.4-7.6,16.7c-5,4.3-11.6,6.4-19.6,6.4c-6,0-11.2-0.9-15.5-2.7c-4.3-1.8-8.6-4.4-12.6-7.9
		l2.1-2.4c4,3.3,7.9,5.8,11.8,7.3c3.9,1.6,8.7,2.3,14.2,2.3c6.9,0,12.5-1.7,16.9-5.2c4.4-3.5,6.6-8.3,6.6-14.6
		c0-4.1-0.7-7.4-2.2-9.9c-1.4-2.5-3.8-4.6-7.2-6.4c-3.3-1.7-8.2-3.4-14.5-5.1c-9-2.4-15.4-5.1-19.2-8.4c-3.8-3.2-5.7-7.6-5.7-13.2
		c0-6,2.4-10.9,7.3-14.8c4.9-3.9,10.9-5.8,18.1-5.8C135.7,150.6,140.1,151.3,144,152.8z"/>
</g>
</svg>
